<svg width="15" height="20" viewBox="0 0 15 20" fill="none" xmlns="http://www.w3.org/2000/svg">
<path d="M14.0043 10.3706C13.8231 9.97361 13.5731 9.5827 13.2075 9.13118C12.2856 7.99785 12.0043 5.47058 12.0012 5.44633C11.9887 5.32512 11.9012 5.22512 11.7856 5.18876C11.6668 5.1524 11.5387 5.18573 11.4543 5.27664C10.3543 6.47967 10.8168 8.33724 11.0668 9.07967C11.1356 9.2827 11.2106 9.52209 11.2637 9.76452C11.6699 11.7251 10.8856 12.613 10.7012 12.7918C10.5231 12.8403 10.4012 12.816 10.2887 12.6979C9.90119 12.2827 9.77306 10.9221 9.95431 9.14937C9.99184 8.78876 9.98244 8.46452 9.92931 8.16149C9.54706 5.98261 8.1455 4.58497 7.78869 4.09482C6.80744 2.67664 6.70744 0.316032 6.70431 0.29482C6.70119 0.182698 6.63556 0.0826983 6.53244 0.0342135C6.43244 -0.0142714 6.31056 -0.00821074 6.21681 0.0554256C4.57931 1.1433 4.71994 3.76452 4.94806 5.22815C5.00119 5.56755 5.10431 5.913 5.28244 6.34937C5.91681 7.90997 5.15744 9.92512 5.15119 9.94331C5.14494 9.96149 5.13869 9.97664 5.13556 9.99482C5.03869 10.4918 4.87619 10.7888 4.69494 10.7888C4.67619 10.7888 4.65744 10.7857 4.63556 10.7797C4.41369 10.7342 4.29806 10.5039 4.29494 10.3039C4.28244 7.71906 1.62931 6.84936 1.60119 6.84027C1.48244 6.80391 1.35119 6.83724 1.26994 6.93118C1.18556 7.02512 1.16994 7.15543 1.22619 7.26452C1.25744 7.32815 1.35744 7.60694 1.28869 8.59179C1.22931 9.47664 1.06369 10.3524 0.798063 11.1918C0.166813 13.2039 0.266813 15.11 0.273063 15.2009C0.758469 20.3617 8.34928 21.266 12.8543 18.3585C13.3481 18.0403 13.7512 17.6766 14.0481 17.2766C15.7106 15.0342 14.7325 11.9888 14.0043 10.3706ZM2.45747 15.3009C2.46684 15.4675 2.33559 15.61 2.16372 15.6191H2.14497C1.97934 15.6191 1.84184 15.4948 1.83247 15.3342C1.80434 14.8918 1.81059 14.4282 1.84497 13.9251C1.85747 13.7585 2.00747 13.6342 2.17934 13.6433C2.35122 13.6554 2.48247 13.8008 2.46997 13.9675C2.43556 14.4463 2.42934 14.8827 2.45747 15.3009ZM2.61056 12.616C2.59181 12.7706 2.45744 12.8827 2.30119 12.8827C2.28869 12.8827 2.27619 12.8827 2.26056 12.8797C2.09181 12.8585 1.96994 12.71 1.98869 12.5433L2.13869 11.3736C2.16056 11.21 2.31369 11.0918 2.48869 11.11C2.66056 11.1312 2.78244 11.2827 2.76056 11.4494L2.61056 12.616Z" fill="#FF6B09"/>
<path d="M11.8897 4.14578C11.7193 4.12017 11.6024 3.96572 11.6287 3.80044C11.6482 3.67732 11.7611 3.04702 12.0675 2.73008C12.1855 2.60787 12.3829 2.6015 12.5093 2.71632C12.6351 2.83069 12.6416 3.02247 12.5235 3.14469C12.3938 3.2789 12.2833 3.66299 12.2464 3.89281C12.22 4.05632 12.0627 4.17108 11.8897 4.14578Z" fill="#FF6B09"/>
<path d="M0.497681 5.65523C0.437868 5.42986 0.289243 5.0582 0.146587 4.93686C0.0167434 4.82647 0.00377455 4.63501 0.117587 4.50926C0.231118 4.38319 0.428399 4.37032 0.558556 4.48113C0.895306 4.76744 1.07124 5.38401 1.10315 5.50459C1.14587 5.66662 1.04518 5.83144 0.878243 5.87317C0.707618 5.91477 0.540212 5.81456 0.497681 5.65523Z" fill="#FF6B09"/>
</svg>
