<svg
    aria-hidden="true"
    xmlns="http://www.w3.org/2000/svg"
>
    <defs>
        <symbol
            id="icon-close"
            viewBox="0 0 32 32"
        >
            <path
                fill="none"
                stroke="#fff"
                style="stroke:var(--color1, #fff)"
                stroke-linecap="round"
                stroke-width="3.765"
                d="M1.882 29.168 29.168 1.882M29.169 29.168 1.883 1.882"
            />
        </symbol>

        <symbol
            id="icon-menu"
            viewBox="0 0 23 14"
        >
            <path
                d="M1 1h21M1 7h21M1 13h21"
                stroke="#000"
                stroke-width="2"
                stroke-linecap="round"
            />
        </symbol>

        <symbol
            id="icon-logo"
            viewBox="0 0 80 20"
        >
            <path
                d="M11.327 5.727v12.117H7.959v-4.726H3.367v4.726H0V5.727h3.367v4.553H7.96V5.727h3.368ZM23.65 13.17c0 .024-.016.295-.05.814h-6.7c.135.485.396.86.781 1.125.397.254.89.381 1.48.381.442 0 .822-.063 1.14-.19.328-.127.657-.335.986-.624l1.7 1.8C22.093 17.493 20.783 18 19.06 18c-1.077 0-2.024-.208-2.84-.623-.817-.416-1.451-.993-1.905-1.731-.442-.739-.663-1.575-.663-2.51 0-.923.215-1.748.646-2.475a4.649 4.649 0 0 1 1.82-1.732c.77-.415 1.638-.623 2.602-.623.918 0 1.752.196 2.5.589.748.38 1.338.94 1.769 1.679.442.727.663 1.592.663 2.596Zm-4.914-2.527c-.499 0-.919.144-1.259.433-.329.288-.538.68-.629 1.177h3.776c-.091-.496-.306-.889-.647-1.177-.328-.289-.742-.433-1.241-.433ZM25.82 5h3.232v12.844h-3.231V5ZM31.832 5h3.232v12.844h-3.232V5Z"
                fill="#111518"
            />
            <g
                clip-path="url(#a)"
                fill="#FF6B09"
            >
                <path
                    d="M52.046 10.37c-.17-.397-.403-.787-.745-1.239-.862-1.133-1.125-3.66-1.128-3.685a.302.302 0 0 0-.201-.257.288.288 0 0 0-.31.087c-1.029 1.203-.596 3.061-.362 3.803.064.204.134.443.184.685.38 1.96-.354 2.849-.526 3.028-.167.048-.28.024-.386-.094-.362-.415-.482-1.776-.313-3.549.035-.36.027-.685-.023-.988-.357-2.179-1.668-3.576-2.002-4.066-.917-1.419-1.01-3.78-1.014-3.8a.298.298 0 0 0-.16-.261.281.281 0 0 0-.295.021c-1.532 1.088-1.4 3.71-1.187 5.173.05.34.146.685.313 1.121.593 1.56-.117 3.576-.123 3.594-.006.018-.011.033-.014.052-.091.497-.243.794-.412.794a.194.194 0 0 1-.056-.01c-.207-.045-.316-.275-.318-.475-.012-2.585-2.493-3.455-2.52-3.464a.283.283 0 0 0-.309.091.309.309 0 0 0-.04.333c.028.064.122.343.058 1.328-.056.884-.21 1.76-.46 2.6a13.223 13.223 0 0 0-.49 4.009c.454 5.16 7.552 6.065 11.764 3.157a4.34 4.34 0 0 0 1.116-1.082c1.555-2.242.64-5.287-.04-6.906ZM41.25 15.3a.298.298 0 0 1-.274.319h-.018a.297.297 0 0 1-.292-.285c-.026-.442-.02-.906.012-1.41a.3.3 0 0 1 .313-.28c.16.011.283.157.271.323-.032.48-.038.915-.012 1.334Zm.144-2.684a.295.295 0 0 1-.29.267c-.011 0-.023 0-.038-.003a.303.303 0 0 1-.254-.337l.14-1.17a.298.298 0 0 1 .328-.263c.16.021.274.173.254.34l-.14 1.166ZM50.07 4.146a.302.302 0 0 1-.244-.345c.018-.124.123-.754.41-1.07a.285.285 0 0 1 .413-.015.311.311 0 0 1 .013.429c-.12.134-.224.518-.259.748a.294.294 0 0 1-.333.253ZM39.417 5.655c-.056-.225-.195-.597-.328-.718a.31.31 0 0 1-.027-.428.284.284 0 0 1 .412-.028c.315.287.48.903.51 1.024a.304.304 0 0 1-.211.368.292.292 0 0 1-.356-.218Z"
                />
            </g>
            <path
                d="M66.356 14.377V17h-9.398V5h9.18v2.623h-5.902v2.023h5.2v2.537h-5.2v2.194h6.12ZM80 5v12h-2.726l-5.167-6.394V17h-3.245V5h2.726l5.168 6.394V5H80Z"
                fill="#111518"
            />
        </symbol>
        <clipPath id="logo">
            <path
                fill="#fff"
                transform="translate(38.952)"
                d="M0 0h14.025v20H0z"
            />
        </clipPath>
        <symbol
            id="icon-logo_menu"
            viewBox="0 0 85 32"
        >
            <path
                fill="#fff"
                style="fill: var(--color1, #fff)"
                d="M11.933 4.825v12.914h-3.548v-5.036h-4.837v5.035h-3.548v-12.912h3.548v4.852h4.837v-4.854h3.548zM24.917 12.757c0 0.025-0.018 0.314-0.053 0.866h-7.059c0.143 0.517 0.418 0.917 0.823 1.199 0.418 0.271 0.939 0.405 1.559 0.405 0.465 0 0.866-0.067 1.2-0.203 0.401-0.168 0.745-0.392 1.041-0.666l-0.002 0.002 1.792 1.919c-0.943 1.082-2.323 1.623-4.139 1.623-1.135 0-2.133-0.222-2.992-0.665-0.838-0.425-1.52-1.054-1.995-1.824l-0.012-0.021c-0.466-0.786-0.699-1.678-0.699-2.674 0-0.983 0.227-1.863 0.681-2.638 0.465-0.782 1.115-1.409 1.892-1.832l0.026-0.013c0.812-0.442 1.726-0.663 2.741-0.663 0.967 0 1.845 0.209 2.635 0.627 0.787 0.405 1.408 1.003 1.862 1.789 0.466 0.775 0.699 1.697 0.699 2.768zM19.74 10.064c-0.526 0-0.967 0.154-1.326 0.461-0.347 0.307-0.567 0.725-0.663 1.254h3.979c-0.096-0.529-0.323-0.947-0.682-1.254-0.347-0.307-0.783-0.461-1.308-0.461zM27.204 4.050h3.404v13.687h-3.404v-13.687zM33.537 4.050h3.405v13.687h-3.405v-13.687z"
            >
            </path>
            <path
                fill="#ff6b09"
                style="fill: var(--color2, #ff6b09)"
                d="M3.003 27.011h0.864v3.733h-0.864v-3.733zM1.307 30.745h-0.864v-3.733h0.864v3.733zM3.067 29.214h-1.824v-0.731h1.824v0.731zM6.505 28.515h1.797v0.672h-1.797v-0.672zM6.569 30.051h2.032v0.693h-2.891v-3.733h2.821v0.693h-1.963v2.347zM10.249 30.745v-3.733h0.864v3.029h1.872v0.704h-2.736zM14.427 30.745v-3.733h0.864v3.029h1.872v0.704h-2.736zM18.606 30.745v-3.733h0.864v3.733h-0.864zM22.542 30.809c-0.299 0-0.585-0.039-0.859-0.117-0.252-0.069-0.473-0.177-0.667-0.319l0.006 0.004 0.293-0.651c0.344 0.243 0.771 0.388 1.232 0.389h0c0.171 0 0.308-0.016 0.411-0.048 0.093-0.027 0.173-0.077 0.234-0.144l0-0c0.046-0.055 0.075-0.127 0.075-0.205 0-0.001 0-0.002 0-0.003v0c0-0.003 0-0.006 0-0.010 0-0.093-0.046-0.175-0.117-0.224l-0.001-0.001c-0.088-0.064-0.191-0.114-0.303-0.143l-0.006-0.001c-0.107-0.035-0.251-0.071-0.397-0.101l-0.030-0.005c-0.199-0.046-0.355-0.090-0.507-0.14l0.043 0.012c-0.161-0.052-0.3-0.117-0.43-0.197l0.009 0.005c-0.128-0.079-0.234-0.183-0.312-0.305l-0.002-0.004c-0.074-0.13-0.118-0.287-0.118-0.453 0-0.013 0-0.026 0.001-0.040l-0 0.002c0-0.213 0.058-0.407 0.171-0.581 0.117-0.178 0.292-0.319 0.523-0.421 0.235-0.107 0.528-0.16 0.88-0.16 0.235 0 0.466 0.028 0.693 0.085 0.228 0.053 0.429 0.134 0.603 0.245l-0.267 0.656c-0.297-0.175-0.652-0.283-1.032-0.293l-0.003-0c-0.166 0-0.304 0.019-0.411 0.059-0.093 0.029-0.171 0.083-0.229 0.154l-0.001 0.001c-0.043 0.057-0.069 0.128-0.069 0.206 0 0.002 0 0.005 0 0.007v-0c0 0.096 0.039 0.174 0.117 0.235 0.079 0.057 0.181 0.102 0.309 0.139 0.128 0.035 0.269 0.070 0.421 0.107 0.157 0.035 0.311 0.076 0.464 0.123 0.157 0.046 0.299 0.108 0.427 0.187 0.261 0.157 0.433 0.439 0.433 0.761 0 0.012-0 0.024-0.001 0.035l0-0.002c0 0.002 0 0.004 0 0.007 0 0.213-0.066 0.41-0.178 0.573l0.002-0.003c-0.133 0.185-0.312 0.33-0.52 0.418l-0.008 0.003c-0.23 0.107-0.524 0.16-0.88 0.16zM28.237 27.011h0.864v3.733h-0.864v-3.733zM26.541 30.745h-0.864v-3.733h0.864v3.733zM28.301 29.214h-1.824v-0.731h1.824v0.731z"
            >
            </path>
            <path
                fill="#fff"
                style="fill: var(--color1, #fff)"
                d="M34.208 28.515h1.798v0.672h-1.798v-0.672zM34.272 30.051h2.033v0.693h-2.891v-3.733h2.821v0.693h-1.963v2.347zM37.952 30.745v-3.733h0.715l2.203 2.688h-0.347v-2.688h0.853v3.733h-0.709l-2.208-2.688h0.347v2.688h-0.853zM45.023 30.809c-0.295 0-0.567-0.047-0.817-0.139-0.25-0.098-0.464-0.235-0.645-0.406l0.001 0.001c-0.177-0.171-0.321-0.374-0.422-0.601l-0.005-0.012c-0.095-0.222-0.149-0.48-0.149-0.751 0-0.008 0-0.016 0-0.024v0.001c0-0.282 0.049-0.539 0.149-0.773 0.208-0.472 0.593-0.835 1.069-1.009l0.013-0.004c0.25-0.096 0.523-0.144 0.821-0.144 0.331 0 0.628 0.054 0.892 0.165 0.267 0.11 0.491 0.27 0.672 0.48l-0.555 0.512c-0.122-0.132-0.269-0.238-0.434-0.311l-0.008-0.003c-0.16-0.071-0.335-0.107-0.523-0.107-0.181 0-0.348 0.028-0.497 0.085-0.149 0.057-0.278 0.139-0.388 0.245-0.107 0.107-0.191 0.233-0.251 0.379-0.058 0.145-0.085 0.307-0.085 0.485 0 0.174 0.028 0.334 0.085 0.48 0.060 0.145 0.144 0.273 0.251 0.384 0.11 0.107 0.238 0.188 0.384 0.245 0.149 0.057 0.313 0.085 0.491 0.085 0.171 0 0.336-0.027 0.496-0.080 0.163-0.058 0.321-0.151 0.474-0.283l0.491 0.624c-0.203 0.153-0.438 0.27-0.708 0.352-0.267 0.081-0.533 0.123-0.8 0.123zM45.742 30.222v-1.403h0.789v1.515l-0.789-0.112zM48.294 30.745v-3.733h0.864v3.029h1.872v0.704h-2.736zM52.473 30.745v-3.733h0.864v3.733h-0.864zM56.41 30.809c-0.299 0-0.585-0.039-0.859-0.117-0.252-0.070-0.473-0.177-0.667-0.319l0.006 0.004 0.293-0.651c0.344 0.242 0.771 0.388 1.232 0.389h0c0.171 0 0.307-0.016 0.411-0.048 0.093-0.027 0.173-0.077 0.234-0.144l0-0c0.046-0.055 0.075-0.127 0.075-0.205 0-0.001 0-0.002-0-0.003v0c0-0.003 0-0.006 0-0.010 0-0.093-0.046-0.175-0.117-0.224l-0.001-0.001c-0.088-0.065-0.191-0.114-0.303-0.143l-0.006-0.001c-0.108-0.035-0.251-0.071-0.397-0.102l-0.030-0.005c-0.199-0.046-0.355-0.090-0.507-0.14l0.043 0.012c-0.161-0.052-0.3-0.117-0.43-0.197l0.009 0.005c-0.128-0.079-0.234-0.183-0.312-0.305l-0.002-0.004c-0.074-0.13-0.118-0.287-0.118-0.453 0-0.013 0-0.026 0.001-0.040l-0 0.002c0-0.213 0.057-0.407 0.171-0.581 0.117-0.178 0.291-0.319 0.523-0.421 0.235-0.107 0.528-0.16 0.88-0.16 0.235 0 0.466 0.028 0.693 0.085 0.227 0.053 0.429 0.134 0.603 0.245l-0.267 0.656c-0.297-0.175-0.652-0.283-1.032-0.293l-0.003-0c-0.167 0-0.304 0.019-0.411 0.059-0.093 0.029-0.171 0.083-0.229 0.154l-0.001 0.001c-0.043 0.057-0.069 0.128-0.069 0.206 0 0.002 0 0.005 0 0.007v-0c0 0.096 0.039 0.174 0.117 0.235 0.078 0.057 0.181 0.102 0.309 0.139 0.128 0.035 0.269 0.070 0.421 0.107 0.157 0.035 0.311 0.076 0.464 0.123 0.157 0.046 0.299 0.108 0.427 0.187 0.261 0.157 0.433 0.439 0.433 0.761 0 0.012-0 0.024-0.001 0.035l0-0.002c0 0.002 0 0.004 0 0.007 0 0.213-0.066 0.41-0.178 0.573l0.002-0.003c-0.133 0.185-0.312 0.33-0.52 0.418l-0.008 0.003c-0.231 0.107-0.525 0.16-0.88 0.16zM62.105 27.011h0.864v3.733h-0.864v-3.733zM60.409 30.745h-0.864v-3.733h0.864v3.733zM62.169 29.214h-1.824v-0.731h1.824v0.731zM70.715 14.915v2.822h-10.069v-12.913h9.837v2.822h-6.325v2.176h5.572v2.731h-5.572v2.362h6.558zM85.333 4.825v12.913h-2.921l-5.536-6.881v6.88h-3.477v-12.911h2.922l5.536 6.88v-6.88h3.476z"
            >
            </path>
            <path
                fill="#ff6b09"
                style="fill: var(--color2, #ff6b09)"
                d="M55.628 11.037c-0.183-0.422-0.435-0.838-0.805-1.319-0.931-1.205-1.216-3.895-1.219-3.921-0.013-0.163-0.148-0.291-0.314-0.291-0.095 0-0.181 0.042-0.238 0.109l-0 0c-1.111 1.28-0.644 3.258-0.391 4.048 0.069 0.215 0.145 0.47 0.198 0.729 0.411 2.086-0.382 3.031-0.569 3.221-0.18 0.052-0.303 0.027-0.416-0.099-0.393-0.443-0.523-1.89-0.339-3.776 0.038-0.384 0.029-0.73-0.025-1.052-0.386-2.319-1.803-3.807-2.164-4.329-0.992-1.509-1.092-4.021-1.095-4.044-0.002-0.121-0.071-0.225-0.172-0.277l-0.002-0.001c-0.041-0.022-0.090-0.034-0.142-0.034-0.067 0-0.129 0.021-0.179 0.058l0.001-0.001c-1.653 1.158-1.513 3.947-1.281 5.505 0.053 0.362 0.158 0.729 0.337 1.194 0.642 1.661-0.126 3.805-0.132 3.824-0.006 0.020-0.013 0.036-0.016 0.055-0.097 0.529-0.261 0.845-0.445 0.845-0.022-0.001-0.042-0.005-0.061-0.011l0.001 0c-0.224-0.047-0.341-0.292-0.345-0.506-0.013-2.751-2.694-3.676-2.723-3.685s-0.062-0.016-0.097-0.016c-0.095 0-0.181 0.043-0.237 0.111l-0 0c-0.048 0.056-0.078 0.13-0.078 0.211 0 0.053 0.013 0.102 0.035 0.146l-0.001-0.002c0.032 0.067 0.132 0.364 0.064 1.412-0.066 1.011-0.243 1.955-0.52 2.854l0.023-0.088c-0.341 1.145-0.537 2.46-0.537 3.821 0 0.157 0.003 0.313 0.008 0.468l-0.001-0.023c0.491 5.493 8.163 6.454 12.717 3.36 0.498-0.338 0.907-0.725 1.205-1.151 1.681-2.386 0.693-5.628-0.043-7.349zM43.957 16.284c0 0.006 0.001 0.013 0.001 0.020 0 0.169-0.131 0.307-0.297 0.318l-0.001 0h-0.018c-0.17-0-0.309-0.134-0.317-0.302l-0-0.001c-0.028-0.47-0.021-0.964 0.013-1.5 0.012-0.168 0.151-0.3 0.321-0.3 0.006 0 0.012 0 0.018 0l-0.001-0c0.166 0.014 0.295 0.153 0.295 0.321 0 0.008-0 0.016-0.001 0.025l0-0.001c-0.035 0.51-0.042 0.975-0.013 1.419zM44.112 13.426c-0.017 0.159-0.15 0.282-0.312 0.284h-0c-0.013 0-0.026 0-0.042-0.003-0.158-0.023-0.277-0.158-0.277-0.32 0-0.013 0.001-0.026 0.002-0.039l-0 0.002 0.153-1.246c0.020-0.159 0.155-0.281 0.318-0.281 0.012 0 0.025 0.001 0.037 0.002l-0.001-0c0.158 0.023 0.278 0.157 0.278 0.319 0 0.015-0.001 0.029-0.003 0.043l0-0.002-0.151 1.242zM53.491 4.412c-0.153-0.027-0.267-0.158-0.267-0.317 0-0.018 0.001-0.035 0.004-0.052l-0 0.002c0.019-0.131 0.133-0.802 0.444-1.139 0.057-0.063 0.139-0.102 0.23-0.102 0.084 0 0.16 0.033 0.216 0.087l-0-0c0.128 0.122 0.134 0.325 0.015 0.455-0.131 0.143-0.243 0.551-0.281 0.797-0.023 0.155-0.154 0.272-0.314 0.272-0.017 0-0.033-0.001-0.049-0.004l0.002 0zM41.977 6.018c-0.061-0.24-0.211-0.635-0.355-0.765-0.066-0.060-0.108-0.147-0.108-0.243 0-0.081 0.029-0.155 0.078-0.212l-0 0c0.057-0.068 0.142-0.11 0.237-0.11 0.080 0 0.154 0.031 0.209 0.081l-0-0c0.341 0.304 0.518 0.96 0.55 1.088 0.007 0.025 0.011 0.053 0.011 0.082 0 0.148-0.1 0.273-0.235 0.311l-0.002 0.001c-0.023 0.006-0.050 0.010-0.077 0.010-0.148 0-0.273-0.102-0.307-0.24l-0-0.002z"
            >
            </path>
        </symbol>
    </defs>
</svg>
