<svg width="55" height="55" viewBox="0 0 55 55" fill="none" xmlns="http://www.w3.org/2000/svg">
<path d="M25.2954 15.8025H10.7832V16.895H25.2954V15.8025Z" fill="white"/>
<path d="M25.2951 19.8796H12.9561V20.9721H25.2951V19.8796Z" fill="white"/>
<path d="M25.2954 23.957H10.7832V25.0495H25.2954V23.957Z" fill="white"/>
<path d="M25.2951 28.0339H12.9561V29.1264H25.2951V28.0339Z" fill="white"/>
<path d="M25.2954 32.1111H10.7832V33.2036H25.2954V32.1111Z" fill="white"/>
<path d="M25.2951 36.1882H12.9561V37.2807H25.2951V36.1882Z" fill="white"/>
<path d="M45.2163 15.8025H30.7041V16.895H45.2163V15.8025Z" fill="white"/>
<path d="M43.0431 19.8796H30.7041V20.9721H43.0431V19.8796Z" fill="white"/>
<path d="M45.2163 23.957H30.7041V25.0495H45.2163V23.957Z" fill="white"/>
<path d="M43.0431 28.0339H30.7041V29.1264H43.0431V28.0339Z" fill="white"/>
<path d="M45.2163 32.1111H30.7041V33.2036H45.2163V32.1111Z" fill="white"/>
<path d="M43.0431 36.1882H30.7041V37.2807H43.0431V36.1882Z" fill="white"/>
<path d="M50.4567 14.5577H48.4646V11.5467C48.4646 11.2449 48.2212 11 47.9213 11H31.6801C30.0951 11 28.7214 11.8622 28.0005 13.153C27.2795 11.8621 25.9049 11 24.3199 11H8.07874C7.77879 11 7.53543 11.2449 7.53543 11.5467V14.5577H5.54331C5.24336 14.5577 5 14.8026 5 15.1045V44.4533C5 44.7551 5.24336 45 5.54331 45C10.9981 45 44.9823 45 50.4567 45C50.7566 45 51 44.7551 51 44.4533V15.1045C51 14.8026 50.7566 14.5577 50.4567 14.5577ZM31.6801 12.0935H47.3779C47.3779 16.9896 47.3779 29.8869 47.3779 41.3771H30.5209C29.7737 41.3771 29.0266 41.6943 28.5433 42.1054V15.2429C28.5433 13.4975 29.9319 12.0935 31.6801 12.0935ZM8.62205 12.0935H24.3199C26.0188 12.0935 27.3937 13.424 27.45 15.1226C27.4507 15.1461 27.4528 15.2198 27.4567 15.2429V15.2472V15.2483V42.1033C26.9747 41.6937 26.2356 41.3771 25.4861 41.3771H8.62205C8.62205 29.8908 8.62205 16.988 8.62205 12.0935ZM6.08661 15.6512H7.53543V41.9239C7.53543 42.2257 7.77879 42.4706 8.07874 42.4706H25.4861C26.3144 42.4706 27.1147 43.0174 27.3709 43.9065H6.08661V15.6512ZM49.9134 43.9065H28.6294C28.8873 43.0131 29.6797 42.4706 30.5209 42.4706H47.9213C48.2212 42.4706 48.4646 42.2257 48.4646 41.9239V15.6512H49.9134V43.9065Z" fill="white"/>
</svg>
