<svg width="55" height="55" viewBox="0 0 55 55" fill="none" xmlns="http://www.w3.org/2000/svg">
<path d="M7.08825 50C12.3379 50 42.7084 50 47.9518 50C48.1542 45.4722 47.8204 37.96 44.9553 34.3845L44.8517 34.256L38.5907 31.2017C38.7267 30.7562 38.7936 30.3481 38.8204 30.0481C38.8514 29.688 38.8003 29.3497 38.668 29.0434C37.6351 26.6419 35.4494 25.3784 34.2472 24.8398C34.6136 24.1226 34.8497 23.3527 34.9638 22.566C35.6444 22.3798 36.1918 21.8557 36.3713 21.1567L37.1021 18.272C37.2315 17.7632 37.1503 17.2354 36.8719 16.7866C36.7521 16.5931 36.5972 16.4302 36.4235 16.2909C38.4839 11.7435 35.033 7.45583 34.8449 7.23014C31.1075 3.30398 26.3861 4.03812 26.1365 4.08163C19.3228 5.46787 16.6934 10.5415 18.1779 16.4919C17.7381 16.9653 17.5535 17.6247 17.7165 18.2713L18.4509 21.1591C18.6289 21.853 19.172 22.3752 19.8477 22.5637C20.0562 24.0044 20.6839 25.3074 21.6057 26.3576V28.6444C11.828 33.5094 18.0234 30.4056 10.1877 34.2571C10.1722 34.329 6.51097 38.1096 7.05516 49.3153L7.08825 50ZM46.532 48.5626H39.8066V45.8177L44.2547 35.924C46.4831 39.5175 46.5658 46.3788 46.532 48.5626ZM37.3531 29.926C37.0936 32.8226 35.4586 31.9471 34.4493 34.1788C33.6555 33.3307 33.4168 32.3137 33.6301 31.2251C34.0155 29.2262 32.7598 28.6325 33.0702 26.5322L33.1172 26.4841V26.4774C33.1439 26.4485 33.3915 26.1619 33.4632 26.0714C36.124 27.1984 37.405 29.2944 37.3531 29.926ZM23.0788 27.6491C24.314 28.4816 25.8051 28.9735 27.4089 28.9735C28.9193 28.9735 30.3539 28.5465 31.5838 27.7602C31.7543 29.4114 32.4185 29.7419 32.1828 30.957C32.1386 31.1825 32.1147 31.4048 32.1005 31.6234L27.5204 36.6388L21.6655 30.2254L23.0788 29.5084V27.6491H23.0788ZM21.2374 21.5111V18.7304C21.2374 17.7063 21.2374 13.6438 21.2374 13.8444C21.9502 12.5635 22.922 11.6346 24.1297 11.0777C27.3641 12.8558 31.0872 15.5095 33.584 18.1801C33.5817 21.5813 33.5939 21.5905 33.5706 21.87L33.5691 21.8877C33.3742 24.9761 30.7605 27.5362 27.4089 27.5362C24.1505 27.5362 21.4453 25.0505 21.2496 21.8571C21.2396 21.7427 21.2374 21.628 21.2374 21.5111ZM20.3253 30.9191L27.5204 38.7998L32.3509 33.5102C32.4613 33.819 32.6162 34.1108 32.7933 34.3927L27.5204 40.7994L19.6575 31.2448L20.3253 30.9191ZM35.0571 20.3544V18.1341C35.1219 18.062 35.671 17.4502 35.6063 17.5223C35.6367 18.6465 35.7616 17.3197 35.0571 20.3544ZM26.4091 5.49411C26.7013 5.51179 30.6277 4.91384 33.7308 8.16887C33.8529 8.31784 36.379 11.48 35.3641 14.9393C35.0168 13.4 34.4113 11.4274 33.4546 10.486L32.4087 11.4981C33.3534 12.4278 33.974 15.2589 34.2103 16.7266C29.8769 12.3209 24.2869 9.53239 24.2102 9.4852C23.9299 9.65461 21.5643 10.0916 19.8463 13.3359L19.7643 13.491V15.8738C19.6905 15.8746 19.474 15.8768 19.5477 15.876C18.4562 10.7556 20.5466 6.68801 26.4091 5.49411ZM19.3925 17.3547L19.7643 18.8181V20.3562L19.1464 17.9264C19.0558 17.5642 19.3319 17.4269 19.3925 17.3547ZM18.3094 31.9024L27.5204 43.0952L33.7524 35.5221C34.4303 36.1116 34.7562 36.1952 36.1936 36.9133L35.7088 35.3155C35.5858 34.9098 36.0728 34.2592 36.367 33.9602C37.0236 33.6142 37.5709 33.1206 37.9803 32.5112L43.065 34.9919L38.3335 45.5166V48.5626H16.7066V45.5162L11.9729 34.993L18.3094 31.9024ZM10.7847 35.9272L15.2335 45.818V48.5626H8.50812C8.47432 46.3795 8.55776 39.5217 10.7847 35.9272Z" fill="#FF6B09"/>
</svg>
