<svg width="55" height="55" viewBox="0 0 55 55" fill="none" xmlns="http://www.w3.org/2000/svg">
<path d="M6.96875 22.837V27.084C6.96875 27.3121 7.07265 27.5271 7.25077 27.6688C10.1325 29.9532 13.7483 31.212 17.4327 31.212C18.5354 31.212 19.6391 31.0959 20.7182 30.8764C23.0182 31.9004 25.4664 32.4243 28.0005 32.4243C30.5427 32.4243 32.9915 31.9001 35.2834 30.8764C39.8864 31.8127 44.7911 30.8071 48.7496 27.6688C48.9277 27.5271 49.0315 27.3121 49.0315 27.084V22.837C49.0315 22.2137 48.7243 21.6457 48.1755 21.2963L42.4164 18.0329C43.6762 16.4227 44.6149 14.1302 44.7781 12.1637C45.2561 8.77893 42.5173 5.19418 38.5748 5.19418C36.917 5.19418 35.3411 5.88152 34.1847 7.03435C34.1447 7.07429 34.0991 7.10798 34.0602 7.14904C34.0245 7.18653 33.9957 7.23026 33.9611 7.26872C33.938 7.29423 33.9179 7.32242 33.8952 7.3483C32.7685 5.27875 30.6027 4 28.051 4C27.8031 4 27.5596 4.01711 27.3185 4.0418C27.3038 4.04091 27.2914 4.0334 27.2764 4.0334C27.1395 4.0334 26.8495 4.06969 26.6945 4.11477C26.6716 4.12146 26.6551 4.13775 26.6334 4.14638C24.7279 4.5345 23.1138 5.69751 22.1464 7.38029C20.983 6.01377 19.2726 5.19485 17.4125 5.19485C11.5925 5.19485 9.01037 12.1127 13.6045 18.066L7.79236 21.316C7.27669 21.6449 6.96875 22.2137 6.96875 22.837ZM35.269 29.2419C35.1441 29.3033 35.0205 29.3689 34.8947 29.4266L34.8946 29.4267C34.8937 29.4271 34.8928 29.4277 34.8918 29.428C32.7291 30.429 30.4106 30.9367 28.0005 30.9367C25.5976 30.9367 23.2791 30.429 21.1063 29.4266C20.049 28.9421 19.0265 28.3262 18.0608 27.5954V23.2902C18.0608 23.1435 18.1315 23.0135 18.213 22.9589L24.9771 19.1723C25.8186 19.8919 26.8938 20.4196 28.0077 20.4196C29.0808 20.4196 30.2397 19.8842 31.0642 19.1547L37.7462 22.9343C37.8695 23.0142 37.9402 23.1435 37.9402 23.2902V27.5947C37.0895 28.2385 36.1935 28.7869 35.269 29.2419ZM47.4176 22.5725C47.5048 22.6277 47.5546 22.7243 47.5546 22.837V26.718C44.6231 28.9339 41.0956 29.9397 37.5219 29.6873C38.0717 29.3417 38.6705 28.9129 39.1344 28.5469C39.3126 28.406 39.4171 28.1903 39.4171 27.9615V23.2902C39.4171 22.6379 39.0918 22.0372 38.5084 21.6603L34.959 19.6511L35.8221 19.1695C36.8691 20.0294 37.7681 20.2852 38.5748 20.2852C39.5613 20.2852 40.6001 19.7977 41.3715 19.147L47.4176 22.5725ZM38.5748 6.68178C40.6306 6.68178 42.4363 8.03491 43.0741 9.89524C41.8337 9.74699 40.6207 9.13031 39.7431 8.1824C39.5844 8.01103 39.3587 7.92237 39.1243 7.94997C38.8935 7.97466 38.688 8.10758 38.569 8.30811C37.7267 9.72959 36.3457 10.6782 34.775 10.9477C34.7751 10.9462 34.7748 10.9449 34.7748 10.9434C34.7818 10.6198 34.7631 10.2918 34.7263 9.96389C34.7226 9.93027 34.7195 9.89724 34.7153 9.864C34.6677 9.49142 34.5563 9.02588 34.5342 8.9509C35.3728 7.5977 36.9305 6.68178 38.5748 6.68178ZM34.6132 12.4654C36.479 12.2595 38.1665 11.3152 39.3255 9.82257C40.4679 10.7662 41.9171 11.3381 43.3492 11.4072C43.3381 14.095 41.1584 18.7976 38.5748 18.7976C36.5833 18.7976 34.8832 15.9291 34.2479 13.9403C34.4093 13.4288 34.5269 12.9368 34.6132 12.4654ZM34.7632 18.0593L33.4439 18.7951L32.1116 18.0414C32.6055 17.4216 33.0584 16.702 33.4464 15.9213C33.8192 16.7109 34.2661 17.4364 34.7632 18.0593ZM32.7724 13.697C32.0602 15.8369 30.2335 18.932 28.0077 18.932C25.4132 18.932 23.2036 14.6358 22.7826 11.8883C22.8949 11.8603 26.4008 12.0779 28.8133 8.88701C30.0379 9.91881 31.69 10.6017 33.2969 10.6695C33.3159 11.6393 33.0823 12.7788 32.7724 13.697ZM28.051 5.48761C32.1905 5.48761 32.9785 9.07631 33.0434 9.15076C31.5424 8.99724 30.1728 8.25656 29.2265 7.2374C29.0678 7.06603 28.837 6.98027 28.607 7.00571C28.3755 7.03115 28.17 7.16481 28.051 7.36675C27.231 8.76406 25.945 9.7496 24.456 10.1684C23.8812 10.3302 23.2603 10.404 22.719 10.3987C22.9217 7.66598 25.0961 5.48761 28.051 5.48761ZM22.558 15.907C22.941 16.6791 23.3962 17.4166 23.9172 18.0645L22.6135 18.7944L21.263 18.0298C21.7752 17.3723 22.2099 16.6366 22.558 15.907ZM17.4125 6.68245C19.0873 6.68245 20.6218 7.53849 21.4769 8.95313C21.434 9.10308 21.3185 9.69999 21.3032 9.77466C20.2755 9.52698 19.3315 8.9756 18.5916 8.18099C18.4323 8.01029 18.2072 7.92527 17.9721 7.94997C17.7414 7.9754 17.5358 8.10907 17.4176 8.31026C16.4298 9.98925 14.6168 11.0321 12.6861 11.0326C12.9212 8.59231 14.9467 6.68245 17.4125 6.68245ZM12.751 12.5164C14.8731 12.4956 16.8766 11.4881 18.1755 9.82257C19.0628 10.5583 20.1167 11.0428 21.2366 11.2641C21.28 12.1263 21.5031 13.1741 21.7582 13.9469C21.3505 15.2064 20.5681 16.7079 19.5978 17.705C19.5916 17.7112 19.5834 17.714 19.5775 17.7204C18.9702 18.3647 18.1063 18.7983 17.4269 18.7983C15.0531 18.7983 13.1964 15.0362 12.751 12.5164ZM8.44567 22.837C8.44567 22.7243 8.49545 22.6285 8.54596 22.5943L14.6754 19.1682C15.0431 19.4766 15.1277 19.5118 15.2017 19.5663L15.2015 19.5668C15.9228 20.0497 16.584 20.2903 17.4861 20.2903C18.4467 20.2903 19.3213 19.8803 20.0909 19.249C20.1343 19.2148 20.1809 19.1818 20.2221 19.147L21.0969 19.6424L17.4536 21.6835C16.9092 22.0372 16.5839 22.6379 16.5839 23.2902V27.9615C16.5839 28.1896 16.6878 28.4053 16.8666 28.5462C17.3383 28.9194 17.9498 29.3547 18.4791 29.6881C14.8539 29.9372 11.3267 28.8956 8.44567 26.718V22.837Z" fill="#FF6B09"/>
<path d="M50.5512 35.1713C49.6425 34.5961 48.5241 34.5365 47.562 35.0064L38.4487 39.4407C38.417 37.7227 37.0249 36.3335 35.3111 36.3335L30.0856 36.3349C27.5089 34.0788 24.2161 32.6973 21.2219 32.6247C18.2692 32.5542 15.6187 32.5344 14.3825 32.5288V31.0259H4V48.3012H14.3825V46.2324C17.2297 47.8777 24.7162 51.9999 28.269 51.9999C28.3497 51.9999 28.4284 51.9977 28.5041 51.9933C34.7522 51.6403 49.4882 41.1958 50.4603 40.5022C51.4109 39.9465 52 38.9179 52 37.8088C52 36.7301 51.4584 35.7444 50.5512 35.1713ZM12.9056 46.8135H5.47692V32.5135H12.9056V46.8135ZM49.7002 39.2266C49.6779 39.239 49.6555 39.2528 49.6346 39.268C49.4824 39.377 34.3246 50.1745 28.4219 50.5086C28.3635 50.5115 28.3043 50.513 28.2423 50.513C25.1261 50.513 17.5285 46.3842 14.3825 44.5116V34.0165C15.614 34.0221 18.2493 34.0419 21.1865 34.1123C23.9218 34.1783 26.9586 35.4938 29.3111 37.6308L29.5217 37.8225L35.3111 37.8211C36.2298 37.8211 36.9776 38.5736 36.9776 39.499C36.9776 40.4244 36.2305 41.1777 35.3118 41.1777H24.6755V42.6653H35.3118C36.3311 42.6653 37.2295 42.1662 37.8041 41.4061L48.2046 36.3459C48.7152 36.0953 49.2848 36.1272 49.7666 36.4315C50.2476 36.7352 50.5231 37.2371 50.5231 37.8088C50.5231 38.3957 50.2079 38.9382 49.7002 39.2266Z" fill="#FF6B09"/>
<path d="M28.7386 22.2378H27.2617V23.6172H28.7386V22.2378Z" fill="#FF6B09"/>
<path d="M28.7386 24.9885H27.2617V26.3679H28.7386V24.9885Z" fill="#FF6B09"/>
<path d="M28.7386 27.7393H27.2617V29.1186H28.7386V27.7393Z" fill="#FF6B09"/>
</svg>
