<svg width="55" height="55" viewBox="0 0 55 55" fill="none" xmlns="http://www.w3.org/2000/svg">
<path d="M5.1875 46.0102H22.2425C23.1068 47.8266 24.9154 49 26.9563 49H28.0333C30.0763 49 31.8838 47.8271 32.7482 46.0102H49.8125C51.5702 46.0102 53 44.5614 53 42.7802V11.8259C53 10.0448 51.5702 8.59591 49.8125 8.59591H48.0911V7.15334C48.0911 5.96574 47.1376 5 45.9661 5H9.0235C7.85205 5 6.8985 5.96574 6.8985 7.15334V8.59591H5.1875C3.42981 8.59591 2 10.0448 2 11.8259V42.7802C2 44.5614 3.42981 46.0102 5.1875 46.0102ZM45.9641 39.3673H28.5625V14.3476C32.5847 14.8807 35.7032 18.368 35.7032 22.5869V23.5579L35.4511 23.5016C35.1772 23.4422 34.8898 23.4921 34.6511 23.6457C34.4135 23.7997 34.2454 24.0426 34.1852 24.3217L32.494 32.1213C32.3684 32.7012 32.7305 33.2747 33.3033 33.4025L36.9587 34.2189C37.1476 34.2594 37.3395 34.2804 37.5315 34.2804C38.8171 34.2804 39.9117 33.3893 40.1919 32.1113L41.1703 27.6006C41.493 26.1197 40.5665 24.6466 39.1003 24.3165L37.8282 24.0324V22.5869C37.8282 17.1783 33.7601 12.7151 28.5625 12.1717V7.15334H45.9661L45.9641 39.3673ZM36.0322 25.8363L38.6417 26.4188C38.9675 26.4924 39.1667 26.8068 39.0951 27.137L38.1167 31.6466C38.0461 31.9725 37.6902 32.1749 37.409 32.1145L34.7964 31.5309L36.0322 25.8363ZM9.0235 7.15334H26.4375V12.1701C21.2347 12.7085 17.1614 17.1746 17.1614 22.5869V24.0317L15.8872 24.317C15.1775 24.4768 14.5715 24.9053 14.1824 25.5235C13.7913 26.1433 13.6626 26.8815 13.8203 27.5985L14.7967 32.1039C15.0613 33.3652 16.1808 34.2804 17.4592 34.2804C17.6511 34.2804 17.8431 34.2594 18.0392 34.2173L21.6791 33.4025C22.2508 33.2742 22.6129 32.7012 22.4874 32.1213L20.7961 24.3217C20.7359 24.0426 20.5678 23.7992 20.3302 23.6457C20.0915 23.4921 19.8031 23.4417 19.5292 23.5016L19.2864 23.556V22.5869C19.2864 18.3644 22.4102 14.8744 26.4375 14.346V39.3673H9.0235V9.67258V7.15334ZM18.9492 25.8374L20.186 31.5314L17.5878 32.1129C17.2683 32.1859 16.9424 31.972 16.874 31.6497L15.8955 27.1338C15.8602 26.9771 15.8882 26.8168 15.9723 26.6832C16.0574 26.5481 16.1912 26.4546 16.3458 26.4193L18.9492 25.8374ZM4.125 11.8259C4.125 11.2324 4.60125 10.7493 5.1875 10.7493H6.8985V39.3673C6.8985 40.5549 7.85205 41.5206 9.0235 41.5206H45.9661C47.1376 41.5206 48.0911 40.5549 48.0911 39.3673V10.7493H49.8125C50.3987 10.7493 50.875 11.2324 50.875 11.8259V42.7802C50.875 43.3738 50.3987 43.8569 49.8125 43.8569H32.026C31.5591 43.8569 31.1472 44.1655 31.0102 44.6176C30.6066 45.9508 29.4102 46.8466 28.0333 46.8466H26.9563C25.5846 46.8466 24.3893 45.9545 23.9753 44.605C23.8342 44.1592 23.4254 43.8569 22.9636 43.8569H5.1875C4.60125 43.8569 4.125 43.3738 4.125 42.7802V11.8259Z" fill="#FF6B09"/>
</svg>
