<svg width="55" height="55" viewBox="0 0 55 55" fill="none" xmlns="http://www.w3.org/2000/svg">
<path d="M48.2802 4H25.2073C23.7052 4 22.4834 5.21497 22.4834 6.70856V16.2058L5.3423 23.36C5.14823 23.4409 5.01631 23.6231 5.00141 23.832C4.98651 24.0408 5.09045 24.2403 5.27107 24.348L7.45705 25.649V39.513C6.33921 39.7665 5.50039 40.7613 5.50039 41.9517V43.2881C5.50039 43.5945 5.75042 43.8432 6.0586 43.8432H9.97301C10.2812 43.8432 10.5312 43.5945 10.5312 43.2881V41.9517C10.5312 40.7629 9.69227 39.7694 8.57348 39.5144V26.3135L10.3019 27.3422C10.2488 27.7385 10.2952 26.6514 10.2772 33.7967C10.2772 36.1455 16.3274 37.4038 22.4834 37.4759V48.2954C22.4834 48.8543 22.6555 49.3741 22.9497 49.8055C23.4393 50.5255 24.2679 51 25.2058 51H48.2787C49.7793 51 51 49.7858 51 48.294C51 48.3681 50.9969 46.0021 51 6.70893C51 5.2356 49.7749 4 48.2802 4ZM9.4148 41.9517V42.733H6.61682V41.9517C6.61682 41.1827 7.24299 40.5568 8.01236 40.5568C8.78572 40.5568 9.4148 41.1827 9.4148 41.9517ZM48.2802 49.8869H25.2073C24.6536 49.8869 24.1646 49.6083 23.8754 49.1853C23.7022 48.9306 23.6009 48.6238 23.6009 48.294V44.5435H49.8807V48.2954C49.8807 49.1648 49.1521 49.8869 48.2802 49.8869ZM49.8807 43.4334H23.5999V37.4792C26.6055 37.445 35.8134 36.7868 35.8134 33.7967C35.81 29.308 35.8213 27.4879 35.7992 27.3338L40.8119 24.348C40.9925 24.2403 41.0964 24.0408 41.0815 23.832C41.0666 23.6231 40.9347 23.4409 40.7406 23.36L23.5999 16.2057V11.5695H49.8807V43.4334ZM23.0416 30.1114C19.9453 30.1114 13.9836 30.509 11.3936 32.1907C11.4101 27.0468 11.2141 27.3819 11.8512 26.9456C13.46 25.7675 18.0617 24.945 23.0416 24.945C25.2137 24.945 34.6969 25.5388 34.6969 27.5354V32.1915C32.0827 30.4941 26.1512 30.1114 23.0416 30.1114ZM23.6009 6.70893C23.6009 5.82896 24.3209 5.11306 25.2058 5.11306H48.2787C49.1644 5.11306 49.8807 5.839 49.8807 6.70856V10.4594H23.6009V6.70893ZM23.0416 17.1767L39.292 23.9592L35.2655 26.3552C33.1247 24.2442 26.0434 23.8349 23.0416 23.8349C20.0359 23.8349 12.9541 24.2455 10.818 26.3559L6.79017 23.9592L23.0416 17.1767ZM11.3936 33.7967C11.3936 32.8983 15.3942 31.2215 23.0416 31.2215C30.6938 31.2215 34.6969 32.8983 34.6969 33.7967C34.6969 34.6959 30.6938 36.3727 23.0416 36.3727C15.3942 36.3727 11.3936 34.6959 11.3936 33.7967Z" fill="#FF6B09"/>
<path d="M36.7417 45.3804C35.7237 45.3804 34.8955 46.2036 34.8955 47.2162C34.8955 48.2288 35.7237 49.0527 36.7417 49.0527C37.76 49.0527 38.5882 48.2288 38.5882 47.2162C38.5882 46.2036 37.76 45.3804 36.7417 45.3804ZM36.7417 47.9426C36.3394 47.9426 36.0119 47.6166 36.0119 47.2162C36.0119 46.8158 36.3394 46.4905 36.7417 46.4905C37.1444 46.4905 37.4718 46.8158 37.4718 47.2162C37.4718 47.6166 37.1444 47.9426 36.7417 47.9426Z" fill="#FF6B09"/>
<path d="M38.8719 7.23145H34.6133V8.34161H38.8719V7.23145Z" fill="#FF6B09"/>
</svg>
