<svg aria-hidden="true" style="position:absolute;width:0;height:0;overflow:hidden" xmlns="http://www.w3.org/2000/svg">
  <defs>
    <symbol id="icon-youtube" viewBox="0 0 32 32">
      <path fill="#2a2a2a" style="fill:var(--color1, #2a2a2a)"
        d="M32 16c0 8.837-7.163 16-16 16S0 24.837 0 16 7.163 0 16 0s16 7.163 16 16z" />
      <path fill="#fff" style="fill:var(--color2, #fff)"
        d="M23.359 11.939a1.935 1.935 0 0 0-1.358-1.374C20.803 10.24 16 10.24 16 10.24s-4.803 0-6.001.325a1.934 1.934 0 0 0-1.358 1.374c-.321 1.212-.321 3.741-.321 3.741s0 2.529.321 3.741a1.935 1.935 0 0 0 1.358 1.374c1.198.325 6.001.325 6.001.325s4.803 0 6.001-.325a1.935 1.935 0 0 0 1.358-1.374c.321-1.212.321-3.741.321-3.741s0-2.529-.321-3.741z" />
      <path fill="#2a2a2a" style="fill:var(--color1, #2a2a2a)" d="m14.43 17.977 4.015-2.296-4.015-2.296v4.592z" />
    </symbol>
    <symbol id="icon-facebook" viewBox="0 0 32 32">
      <path fill="#2a2a2a" style="fill:var(--color1, #2a2a2a)"
        d="M32 16c0 8.837-7.163 16-16 16S0 24.837 0 16 7.163 0 16 0s16 7.163 16 16z" />
      <path fill="#fff" style="fill:var(--color2, #fff)"
        d="m19.726 14.18-.431 2.78h-2.266v6.72H13.99v-6.72h-2.469v-2.78h2.469v-2.119c0-2.41 1.452-3.742 3.674-3.742 1.064 0 2.177.188 2.177.188v2.367h-1.226c-1.208 0-1.585.741-1.585 1.502v1.804h2.697z" />
    </symbol>
    <symbol id="icon-instagram" viewBox="0 0 32 32">
      <path fill="#2a2a2a" style="fill:var(--color1, #2a2a2a)"
        d="M32 16c0 8.837-7.163 16-16 16S0 24.837 0 16 7.163 0 16 0s16 7.163 16 16z" />
      <path fill="#fff" style="fill:var(--color2, #fff)"
        d="M16.001 8.32c-2.086 0-2.348.009-3.167.046-.818.037-1.376.167-1.864.357-.505.196-.934.459-1.36.886s-.69.855-.886 1.36c-.19.488-.32 1.047-.357 1.864-.036.819-.046 1.081-.046 3.167s.009 2.347.046 3.166c.038.818.167 1.376.357 1.864.196.505.459.934.886 1.36s.855.69 1.36.886c.489.19 1.047.319 1.864.357.819.037 1.081.046 3.166.046s2.347-.009 3.166-.046c.818-.037 1.376-.167 1.865-.357.505-.196.933-.459 1.36-.886s.69-.855.886-1.36c.189-.488.318-1.047.357-1.864.037-.819.046-1.08.046-3.166s-.01-2.348-.046-3.167c-.038-.818-.168-1.376-.357-1.864-.197-.505-.459-.934-.886-1.36s-.854-.69-1.36-.886c-.49-.19-1.048-.319-1.866-.357-.819-.037-1.08-.046-3.166-.046h.002zm-.689 1.384h.689c2.051 0 2.294.007 3.103.044.749.034 1.155.159 1.426.264.358.139.614.306.883.574s.435.525.575.883c.105.27.23.677.264 1.426.037.81.045 1.053.045 3.102s-.008 2.293-.045 3.102c-.034.749-.159 1.155-.264 1.426-.139.358-.306.614-.575.882s-.524.435-.883.574c-.27.106-.677.23-1.426.265-.81.037-1.053.045-3.103.045s-2.294-.008-3.103-.045c-.749-.035-1.155-.16-1.426-.265-.358-.139-.614-.306-.883-.574s-.435-.524-.575-.883c-.105-.27-.23-.677-.264-1.426-.037-.81-.044-1.053-.044-3.104s.007-2.293.044-3.102c.034-.749.159-1.155.264-1.426.139-.358.306-.614.575-.883s.525-.435.883-.575c.271-.106.677-.23 1.426-.265.708-.032.983-.042 2.414-.043v.002zM20.1 10.98a.925.925 0 0 0-.851.569.917.917 0 0 0 .2 1.005.916.916 0 0 0 1.005.199.929.929 0 0 0 .569-.852.922.922 0 0 0-.922-.922zm-4.099 1.076a3.944 3.944 0 1 0 0 7.889 3.944 3.944 0 0 0 0-7.889zm0 1.384a2.56 2.56 0 1 1 0 5.12 2.56 2.56 0 0 1 0-5.12z" />
    </symbol>
    <symbol id="icon-catalog" viewBox="0 0 32 32">
      <path
        d="M8 8h3.333v3.333H8V8zM20.667 8H24v3.333h-3.333V8zM8 20.667h3.333V24H8v-3.333zM20.667 20.667H24V24h-3.333v-3.333z" />
      <path fill="none" stroke="" style="stroke:var(--color3, #fff)" stroke-width=".333"
        d="M.667.667h30.667v30.667H.667V.667z" />
    </symbol>
    <symbol id="icon-shopping_cart" viewBox="0 0 32 32">
      <path fill="" stroke="" style="" stroke-width="1.5"
        d="M27.25 25.5a1.75 1.75 0 1 1-3.501-.001 1.75 1.75 0 0 1 3.501.001zM17.25 25.5a1.75 1.75 0 1 1-3.501-.001 1.75 1.75 0 0 1 3.501.001zM28 21.5H13l-2.057-12M4 4h6l.943 5.5m0 0H28l-3 9H12.5" />
    </symbol>
    <symbol id="icon-cabinet" viewBox="0 0 32 32">
      <path fill="" stroke="" style="" stroke-width="1.5"
        d="M27.213 27.25H4.788c.217-2.148 1.367-3.921 3.165-5.212 2.018-1.45 4.856-2.288 8.048-2.288s6.029.838 8.048 2.288c1.798 1.291 2.948 3.063 3.165 5.212zM21.25 10a5.25 5.25 0 1 1-10.501-.001A5.25 5.25 0 0 1 21.25 10z" />
    </symbol>
    <symbol id="icon-heart" viewBox="0 0 32 32">
      <path fill="" stroke="" style="" stroke-width="1.5"
        d="m25.442 16.117-.005.006L16 26.863 6.558 16.117c-2.403-2.676-2.411-6.926-.023-9.612 1.22-1.123 2.593-1.756 4.131-1.756 1.537 0 2.898.63 4.109 1.978L16 8.091l1.225-1.364c2.361-2.629 6.048-2.637 8.417-.025 1.013 1.364 1.608 2.932 1.608 4.719 0 1.793-.597 3.347-1.808 4.695z" />
    </symbol>
    <symbol id="icon-products" viewBox="0 0 32 32">
      <path fill="" stroke="" style="" stroke-width="1.5"
        d="M10 27.25h12M27.25 19c0 .709-.339 1.241-.916 1.626-.599.399-1.445.624-2.334.624s-1.735-.224-2.334-.624c-.577-.385-.916-.917-.916-1.626 0-1.793.913-3.898 1.901-5.628.485-.849.972-1.579 1.337-2.096l.012-.017.012.017c.365.517.851 1.246 1.337 2.096.989 1.73 1.901 3.835 1.901 5.628zM11.25 19c0 .709-.339 1.241-.916 1.626-.599.399-1.445.624-2.334.624s-1.735-.224-2.334-.624c-.577-.385-.916-.917-.916-1.626 0-1.793.913-3.898 1.901-5.628.485-.849.972-1.579 1.337-2.096L8 11.259l.012.017c.365.517.851 1.246 1.337 2.096.989 1.73 1.901 3.835 1.901 5.628zM16.25 9v18M18.5 6.75H24M8 6.75h5.5M18.25 7a2.25 2.25 0 1 1-4.5 0 2.25 2.25 0 0 1 4.5 0z" />
    </symbol>
    <symbol id="icon-search" viewBox="0 0 32 32">
      <path
        d="M31.008 27.231l-7.58-6.447c-0.784-0.705-1.622-1.029-2.299-0.998 1.789-2.096 2.87-4.815 2.87-7.787 0-6.627-5.373-12-12-12s-12 5.373-12 12 5.373 12 12 12c2.972 0 5.691-1.081 7.787-2.87-0.031 0.677 0.293 1.515 0.998 2.299l6.447 7.58c1.104 1.226 2.907 1.33 4.007 0.23s0.997-2.903-0.23-4.007zM12 20c-4.418 0-8-3.582-8-8s3.582-8 8-8 8 3.582 8 8-3.582 8-8 8z">
      </path>
    </symbol>
  </defs>
</svg>