<svg
    aria-hidden="true"
    xmlns="http://www.w3.org/2000/svg"
>
    <defs>
        <symbol
            id="icon-close"
            viewBox="0 0 32 32"
        >
            <path
                fill="none"
                stroke="#fff"
                style="stroke:var(--color1, #fff)"
                stroke-linecap="round"
                stroke-width="3.765"
                d="M1.882 29.168 29.168 1.882m.001 27.286L1.883 1.882"
            />
        </symbol>
        <symbol
            id="icon-menu"
            viewBox="0 0 23 14"
        >
            <path
                d="M1 1h21M1 7h21M1 13h21"
                stroke="#000"
                stroke-width="2"
                stroke-linecap="round"
            />
        </symbol>
        <symbol
            id="icon-logo"
            viewBox="0 0 80 20"
        >
            <path
                d="M11.327 5.727v12.117H7.959v-4.726H3.367v4.726H0V5.727h3.367v4.553H7.96V5.727h3.368ZM23.65 13.17c0 .024-.016.295-.05.814h-6.7c.135.485.396.86.781 1.125.397.254.89.381 1.48.381.442 0 .822-.063 1.14-.19.328-.127.657-.335.986-.624l1.7 1.8C22.093 17.493 20.783 18 19.06 18c-1.077 0-2.024-.208-2.84-.623-.817-.416-1.451-.993-1.905-1.731-.442-.739-.663-1.575-.663-2.51 0-.923.215-1.748.646-2.475a4.649 4.649 0 0 1 1.82-1.732c.77-.415 1.638-.623 2.602-.623.918 0 1.752.196 2.5.589.748.38 1.338.94 1.769 1.679.442.727.663 1.592.663 2.596Zm-4.914-2.527c-.499 0-.919.144-1.259.433-.329.288-.538.68-.629 1.177h3.776c-.091-.496-.306-.889-.647-1.177-.328-.289-.742-.433-1.241-.433ZM25.82 5h3.232v12.844h-3.231V5Zm6.012 0h3.232v12.844h-3.232V5Z"
                fill="#111518"
            />
            <g
                clip-path="url(#a)"
                fill="#FF6B09"
            >
                <path
                    d="M52.046 10.37a5.845 5.845 0 0 0-.745-1.239c-.862-1.133-1.125-3.66-1.128-3.685a.302.302 0 0 0-.201-.257.288.288 0 0 0-.31.087c-1.029 1.203-.596 3.061-.362 3.803.064.204.134.443.184.685.38 1.96-.354 2.849-.526 3.028-.167.048-.28.024-.386-.094-.362-.415-.482-1.776-.313-3.549.035-.36.027-.685-.023-.988-.357-2.179-1.668-3.576-2.002-4.066-.917-1.419-1.01-3.78-1.014-3.8a.298.298 0 0 0-.16-.261.281.281 0 0 0-.295.021c-1.532 1.088-1.4 3.71-1.187 5.173.05.34.146.685.313 1.121.593 1.56-.117 3.576-.123 3.594a.307.307 0 0 0-.014.052c-.091.497-.243.794-.412.794a.194.194 0 0 1-.056-.01c-.207-.045-.316-.275-.318-.475-.012-2.585-2.493-3.455-2.52-3.464a.283.283 0 0 0-.309.091.309.309 0 0 0-.04.333c.028.064.122.343.058 1.328-.056.884-.21 1.76-.46 2.6a13.223 13.223 0 0 0-.49 4.009c.454 5.16 7.552 6.065 11.764 3.157a4.34 4.34 0 0 0 1.116-1.082c1.555-2.242.64-5.287-.04-6.906ZM41.25 15.3a.298.298 0 0 1-.274.319h-.018a.297.297 0 0 1-.292-.285 11.53 11.53 0 0 1 .012-1.41.3.3 0 0 1 .313-.28.3.3 0 0 1 .271.323c-.032.48-.038.915-.012 1.334Zm.144-2.684a.295.295 0 0 1-.29.267c-.011 0-.023 0-.038-.003a.303.303 0 0 1-.254-.337l.14-1.17a.298.298 0 0 1 .328-.263c.16.021.274.173.254.34l-.14 1.166Zm8.676-8.47a.302.302 0 0 1-.244-.345c.018-.124.123-.754.41-1.07a.285.285 0 0 1 .413-.015.311.311 0 0 1 .013.429c-.12.134-.224.518-.259.748a.294.294 0 0 1-.333.253ZM39.417 5.655c-.056-.225-.195-.597-.328-.718a.31.31 0 0 1-.027-.428.284.284 0 0 1 .412-.028c.315.287.48.903.51 1.024a.304.304 0 0 1-.211.368.292.292 0 0 1-.356-.218Z"
                />
            </g>
            <path
                d="M66.356 14.377V17h-9.398V5h9.18v2.623h-5.902v2.023h5.2v2.537h-5.2v2.194h6.12ZM80 5v12h-2.726l-5.167-6.394V17h-3.245V5h2.726l5.168 6.394V5H80Z"
                fill="#111518"
            />
        </symbol>
        <symbol
            id="icon-logo_menu"
            viewBox="0 0 85 32"
        >
            <path
                fill="#fff"
                style="fill:var(--color1, #fff)"
                d="M11.933 4.825v12.914H8.385v-5.036H3.548v5.035H0V4.826h3.548v4.852h4.837V4.824h3.548zm12.984 7.932c0 .025-.018.314-.053.866h-7.059c.143.517.418.917.823 1.199.418.271.939.405 1.559.405.465 0 .866-.067 1.2-.203a3.516 3.516 0 0 0 1.041-.666l-.002.002 1.792 1.919c-.943 1.082-2.323 1.623-4.139 1.623-1.135 0-2.133-.222-2.992-.665a4.969 4.969 0 0 1-1.995-1.824l-.012-.021c-.466-.786-.699-1.678-.699-2.674 0-.983.227-1.863.681-2.638a4.957 4.957 0 0 1 1.892-1.832l.026-.013c.812-.442 1.726-.663 2.741-.663.967 0 1.845.209 2.635.627a4.492 4.492 0 0 1 1.862 1.789c.466.775.699 1.697.699 2.768zm-5.177-2.693c-.526 0-.967.154-1.326.461-.347.307-.567.725-.663 1.254h3.979c-.096-.529-.323-.947-.682-1.254-.347-.307-.783-.461-1.308-.461zm7.464-6.014h3.404v13.687h-3.404V4.05zm6.333 0h3.405v13.687h-3.405V4.05z"
            />
            <path
                fill="#ff6b09"
                style="fill:var(--color2, #ff6b09)"
                d="M3.003 27.011h.864v3.733h-.864v-3.733zm-1.696 3.734H.443v-3.733h.864v3.733zm1.76-1.531H1.243v-.731h1.824v.731zm3.438-.699h1.797v.672H6.505v-.672zm.064 1.536h2.032v.693H5.71v-3.733h2.821v.693H6.568v2.347zm3.68.694v-3.733h.864v3.029h1.872v.704h-2.736zm4.178 0v-3.733h.864v3.029h1.872v.704h-2.736zm4.179 0v-3.733h.864v3.733h-.864zm3.936.064a3.12 3.12 0 0 1-.859-.117 2.021 2.021 0 0 1-.667-.319l.006.004.293-.651a2.14 2.14 0 0 0 1.232.389c.171 0 .308-.016.411-.048a.504.504 0 0 0 .234-.144.32.32 0 0 0 .075-.205v-.013a.271.271 0 0 0-.117-.224l-.001-.001a.9.9 0 0 0-.303-.143l-.006-.001a3.853 3.853 0 0 0-.397-.101l-.03-.005a5.615 5.615 0 0 1-.507-.14l.043.012a1.95 1.95 0 0 1-.43-.197l.009.005a.978.978 0 0 1-.312-.305l-.002-.004a.92.92 0 0 1-.118-.453l.001-.04v.002c0-.213.058-.407.171-.581.117-.178.292-.319.523-.421.235-.107.528-.16.88-.16.235 0 .466.028.693.085.228.053.429.134.603.245l-.267.656a2.148 2.148 0 0 0-1.032-.293h-.003c-.166 0-.304.019-.411.059a.477.477 0 0 0-.229.154l-.001.001a.34.34 0 0 0-.069.206v.007c0 .096.039.174.117.235a.999.999 0 0 0 .309.139c.128.035.269.07.421.107.157.035.311.076.464.123.157.046.299.108.427.187a.886.886 0 0 1 .433.761l-.001.035v-.002.007c0 .213-.066.41-.178.573l.002-.003c-.133.185-.312.33-.52.418l-.008.003c-.23.107-.524.16-.88.16zm5.695-3.798h.864v3.733h-.864v-3.733zm-1.696 3.734h-.864v-3.733h.864v3.733zm1.76-1.531h-1.824v-.731h1.824v.731z"
            />
            <path
                fill="#fff"
                style="fill:var(--color1, #fff)"
                d="M34.208 28.515h1.798v.672h-1.798v-.672zm.064 1.536h2.033v.693h-2.891v-3.733h2.821v.693h-1.963v2.347zm3.68.694v-3.733h.715L40.87 29.7h-.347v-2.688h.853v3.733h-.709l-2.208-2.688h.347v2.688h-.853zm7.071.064c-.295 0-.567-.047-.817-.139a1.983 1.983 0 0 1-.645-.406l.001.001a1.922 1.922 0 0 1-.422-.601l-.005-.012a1.92 1.92 0 0 1-.149-.751v-.024.001c0-.282.049-.539.149-.773a1.873 1.873 0 0 1 1.069-1.009l.013-.004a2.27 2.27 0 0 1 .821-.144c.331 0 .628.054.892.165.267.11.491.27.672.48l-.555.512a1.315 1.315 0 0 0-.434-.311l-.008-.003a1.277 1.277 0 0 0-.523-.107c-.181 0-.348.028-.497.085a1.139 1.139 0 0 0-.388.245 1.146 1.146 0 0 0-.336.864c0 .174.028.334.085.48.06.145.144.273.251.384.11.107.238.188.384.245.149.057.313.085.491.085.171 0 .336-.027.496-.08a1.49 1.49 0 0 0 .474-.283l.491.624c-.203.153-.438.27-.708.352a2.742 2.742 0 0 1-.8.123zm.719-.587v-1.403h.789v1.515l-.789-.112zm2.552.523v-3.733h.864v3.029h1.872v.704h-2.736zm4.179 0v-3.733h.864v3.733h-.864zm3.937.064a3.12 3.12 0 0 1-.859-.117 2.041 2.041 0 0 1-.667-.319l.006.004.293-.651c.344.242.771.388 1.232.389.171 0 .307-.016.411-.048a.504.504 0 0 0 .234-.144.32.32 0 0 0 .075-.205v-.013a.271.271 0 0 0-.117-.224l-.001-.001a.882.882 0 0 0-.303-.143l-.006-.001a4.186 4.186 0 0 0-.397-.102l-.03-.005a5.615 5.615 0 0 1-.507-.14l.043.012a1.95 1.95 0 0 1-.43-.197l.009.005a.978.978 0 0 1-.312-.305l-.002-.004a.92.92 0 0 1-.118-.453l.001-.04v.002c0-.213.057-.407.171-.581.117-.178.291-.319.523-.421.235-.107.528-.16.88-.16.235 0 .466.028.693.085.227.053.429.134.603.245l-.267.656a2.148 2.148 0 0 0-1.032-.293h-.003c-.167 0-.304.019-.411.059a.477.477 0 0 0-.229.154l-.001.001a.34.34 0 0 0-.069.206v.007c0 .096.039.174.117.235a.988.988 0 0 0 .309.139c.128.035.269.07.421.107.157.035.311.076.464.123.157.046.299.108.427.187a.886.886 0 0 1 .433.761l-.001.035v-.002.007c0 .213-.066.41-.178.573l.002-.003c-.133.185-.312.33-.52.418l-.008.003c-.231.107-.525.16-.88.16zm5.695-3.798h.864v3.733h-.864v-3.733zm-1.696 3.734h-.864v-3.733h.864v3.733zm1.76-1.531h-1.824v-.731h1.824v.731zm8.546-14.299v2.822H60.646V4.824h9.837v2.822h-6.325v2.176h5.572v2.731h-5.572v2.362h6.558zm14.618-10.09v12.913h-2.921l-5.536-6.881v6.88h-3.477V4.826h2.922l5.536 6.88v-6.88h3.476z"
            />
            <path
                fill="#ff6b09"
                style="fill:var(--color2, #ff6b09)"
                d="M55.628 11.037c-.183-.422-.435-.838-.805-1.319-.931-1.205-1.216-3.895-1.219-3.921a.315.315 0 0 0-.552-.182c-1.111 1.28-.644 3.258-.391 4.048.069.215.145.47.198.729.411 2.086-.382 3.031-.569 3.221-.18.052-.303.027-.416-.099-.393-.443-.523-1.89-.339-3.776a3.96 3.96 0 0 0-.025-1.052c-.386-2.319-1.803-3.807-2.164-4.329-.992-1.509-1.092-4.021-1.095-4.044a.317.317 0 0 0-.172-.277l-.002-.001a.3.3 0 0 0-.142-.034.3.3 0 0 0-.179.058l.001-.001c-1.653 1.158-1.513 3.947-1.281 5.505.053.362.158.729.337 1.194.642 1.661-.126 3.805-.132 3.824-.006.02-.013.036-.016.055-.097.529-.261.845-.445.845a.236.236 0 0 1-.061-.011h.001c-.224-.047-.341-.292-.345-.506-.013-2.751-2.694-3.676-2.723-3.685s-.062-.016-.097-.016a.307.307 0 0 0-.237.111.324.324 0 0 0-.043.357l-.001-.002c.032.067.132.364.064 1.412a12.36 12.36 0 0 1-.52 2.854l.023-.088a13.55 13.55 0 0 0-.529 4.289l-.001-.023c.491 5.493 8.163 6.454 12.717 3.36.498-.338.907-.725 1.205-1.151 1.681-2.386.693-5.628-.043-7.349zm-11.671 5.247.001.02a.318.318 0 0 1-.297.318h-.019a.318.318 0 0 1-.317-.302v-.001c-.028-.47-.021-.964.013-1.5a.322.322 0 0 1 .321-.3h.018-.001a.322.322 0 0 1 .295.321l-.001.025v-.001c-.035.51-.042.975-.013 1.419zm.155-2.858a.318.318 0 0 1-.312.284c-.013 0-.026 0-.042-.003a.323.323 0 0 1-.277-.32l.002-.039v.002l.153-1.246a.32.32 0 0 1 .355-.279h-.001a.323.323 0 0 1 .275.362v-.002l-.151 1.242zm9.379-9.014a.321.321 0 0 1-.263-.369v.002c.019-.131.133-.802.444-1.139a.309.309 0 0 1 .446-.015.326.326 0 0 1 .015.455c-.131.143-.243.551-.281.797a.317.317 0 0 1-.363.268h.002zM41.977 6.018c-.061-.24-.211-.635-.355-.765a.329.329 0 0 1-.03-.455.311.311 0 0 1 .446-.029c.341.304.518.96.55 1.088a.324.324 0 0 1-.224.393l-.002.001a.316.316 0 0 1-.384-.23v-.002z"
            />
        </symbol>
        <symbol
            id="icon-facebook"
            viewBox="0 0 34 35"
        >
            <path
                d="M28.786 2.531H5.214c-.852 0-1.67.336-2.273.934A3.172 3.172 0 0 0 2 5.718v23.366c0 .845.339 1.655.941 2.253.603.598 1.42.933 2.273.933h9.191V22.16h-4.219V17.4h4.22v-3.626c0-4.126 2.477-6.405 6.272-6.405 1.817 0 3.717.322 3.717.322v4.049h-2.093c-2.064 0-2.707 1.27-2.707 2.57v3.09H24.2l-.737 4.76h-3.87v10.11h9.192c.852 0 1.67-.336 2.273-.933A3.172 3.172 0 0 0 32 29.084V5.718c0-.845-.339-1.656-.941-2.253a3.229 3.229 0 0 0-2.273-.934Z"
                fill="#436EAB"
            />
        </symbol>
        <symbol
            id="icon-prev"
            viewBox="0 0 27 16"
        >
            <path
                d="M26 7C26.5523 7 27 7.44772 27 8C27 8.55228 26.5523 9 26 9V7ZM0.292892 8.70711C-0.0976315 8.31658 -0.0976315 7.68342 0.292892 7.29289L6.65685 0.928932C7.04738 0.538408 7.68054 0.538408 8.07107 0.928932C8.46159 1.31946 8.46159 1.95262 8.07107 2.34315L2.41421 8L8.07107 13.6569C8.46159 14.0474 8.46159 14.6805 8.07107 15.0711C7.68054 15.4616 7.04738 15.4616 6.65685 15.0711L0.292892 8.70711ZM26 9H1V7H26V9Z"
                fill="#FF6B09"
            />
        </symbol>
        <symbol
            id="icon-next"
            viewBox="0 0 27 16"
        >
            <path
                d="M1 7C0.447715 7 0 7.44772 0 8C0 8.55228 0.447715 9 1 9V7ZM26.7071 8.70711C27.0976 8.31658 27.0976 7.68342 26.7071 7.29289L20.3431 0.928932C19.9526 0.538408 19.3195 0.538408 18.9289 0.928932C18.5384 1.31946 18.5384 1.95262 18.9289 2.34315L24.5858 8L18.9289 13.6569C18.5384 14.0474 18.5384 14.6805 18.9289 15.0711C19.3195 15.4616 19.9526 15.4616 20.3431 15.0711L26.7071 8.70711ZM1 9H26V7H1V9Z"
                fill="#FF6B09"
            />
        </symbol>
        <clipPath id="logo">
            <path
                fill="#fff"
                transform="translate(38.952)"
                d="M0 0h14.025v20H0z"
            />
        </clipPath>
    </defs>
</svg>
