<svg aria-hidden="true" style="position: absolute; width: 0; height: 0; overflow: hidden;" version="1.1" xmlns="http://www.w3.org/2000/svg" xmlns:xlink="http://www.w3.org/1999/xlink">
<defs>
<symbol id="icon-Group3" viewBox="0 0 32 32">
<path fill="#ff6b09" style="fill: var(--color1, #ff6b09)" d="M7.575 14.543c0 0.23-0.35 0.23-0.35 0 0-4.895 3.97-8.866 8.866-8.866 4.898 0 8.866 3.97 8.866 8.866 0 0.23-0.347 0.23-0.347 0 0-3.309-5.438-3.311-5.438 0 0 0.23-0.358 0.23-0.358 0 0-3.301-5.446-3.301-5.446 0 0 0.23-0.358 0.23-0.358 0 0-3.294-5.435-3.317-5.435 0zM13.042 13.258c0.094-1.905 0.393-3.612 0.829-4.916 0.347-1.036 0.787-1.823 1.285-2.265-3.738 0.408-6.765 3.242-7.441 6.917 1.287-1.856 4.259-1.708 5.327 0.264zM18.787 13.172c-0.096-1.831-0.387-3.47-0.806-4.72-1.080-3.234-2.7-3.234-3.78 0-0.419 1.25-0.707 2.888-0.806 4.72 1.162-1.974 4.23-1.974 5.391 0zM24.468 12.994c-0.674-3.675-3.7-6.509-7.441-6.917 0.5 0.442 0.938 1.229 1.285 2.265 0.435 1.304 0.735 3.012 0.829 4.916 1.074-1.982 4.054-2.099 5.327-0.264z"></path>
<path fill="#ff6b09" style="fill: var(--color1, #ff6b09)" d="M14.928 18.6v-1.8c-0.324 0.216-0.58 0.549-0.58 0.955 0 0.396 0.259 0.657 0.58 0.846zM15.278 19.159c-0.622-0.285-1.277-0.618-1.277-1.405 0-0.812 0.617-1.218 1.277-1.522v2.927z"></path>
<path fill="#ff6b09" style="fill: var(--color1, #ff6b09)" d="M17.255 21.316v1.821c0.329-0.218 0.586-0.553 0.586-0.959 0-0.4-0.264-0.67-0.586-0.862zM16.908 20.755c0.624 0.289 1.283 0.632 1.283 1.423 0 0.814-0.622 1.22-1.283 1.522v-2.945z"></path>
<path fill="#ff6b09" style="fill: var(--color1, #ff6b09)" d="M17.255 14.751c1.432 0.331 2.903 1.402 2.903 3.004 0 1.371-2.317 1.321-2.317 0 0-0.408-0.257-0.743-0.586-0.959v2.562c1.325 0.433 2.907 1.21 2.907 2.821 0 1.603-1.471 2.673-2.907 3.001-0.006 1.526-2.323 1.524-2.327-0.002-0.816-0.188-1.526-0.569-2.039-1.074-0.538-0.532-0.856-1.199-0.856-1.926 0-1.35 2.315-1.35 2.315 0 0 0.404 0.255 0.737 0.58 0.952v-2.56c-1.314-0.425-2.905-1.224-2.905-2.821 0-1.603 1.471-2.673 2.905-3.001 0.006-1.526 2.323-1.524 2.327 0.002zM15.277 14.755v0.278c-1.363 0.27-2.907 1.143-2.907 2.717 0 1.513 1.695 2.191 2.907 2.566v3.382c-0.655-0.299-1.277-0.703-1.277-1.52 0-0.892-1.62-0.892-1.62 0 0 0.63 0.28 1.212 0.753 1.677 0.601 0.594 1.329 0.877 2.143 1.038v0.28c0 1.074 1.63 1.074 1.63 0v-0.278c1.367-0.272 2.905-1.145 2.905-2.717 0-1.528-1.691-2.185-2.905-2.568v-3.38c0.657 0.299 1.283 0.703 1.283 1.524 0 0.869 1.618 0.904 1.618 0 0-1.572-1.536-2.447-2.901-2.719v-0.28c0-1.074-1.63-1.074-1.63 0z"></path>
<path fill="none" stroke="#ff6b09" style="stroke: var(--color1, #ff6b09)" stroke-linejoin="miter" stroke-linecap="butt" stroke-miterlimit="4" stroke-width="1.0323" d="M31.484 4.767v-4.25h-30.968v30.968h30.968v-4.25"></path>
</symbol>
<symbol id="icon-Group2" viewBox="0 0 32 32">
<path fill="#ff6b09" style="fill: var(--color1, #ff6b09)" d="M25.116 5.077h-10.413c-0.678 0-1.229 0.551-1.229 1.229v4.31l-7.736 3.247c-0.088 0.037-0.147 0.119-0.154 0.214s0.040 0.185 0.122 0.234l0.987 0.59v6.292c-0.505 0.115-0.883 0.567-0.883 1.107v0.607c0 0.139 0.113 0.252 0.252 0.252h1.767c0.139 0 0.252-0.113 0.252-0.252v-0.607c0-0.54-0.379-0.99-0.883-1.106v-5.991l0.78 0.467c-0.024 0.18-0.003-0.313-0.011 2.929 0 1.066 2.73 1.637 5.509 1.67v4.91c0 0.254 0.078 0.489 0.21 0.685 0.221 0.327 0.595 0.542 1.018 0.542h10.413c0.677 0 1.228-0.551 1.228-1.228 0 0.034-0.001-1.040 0-18.873 0-0.669-0.553-1.229-1.227-1.229zM7.576 22.301v0.355h-1.263v-0.355c0-0.349 0.283-0.633 0.63-0.633 0.349 0 0.633 0.284 0.633 0.633zM25.116 25.902h-10.413c-0.25 0-0.471-0.126-0.601-0.318-0.078-0.116-0.124-0.255-0.124-0.405v-1.702h11.86v1.703c0 0.395-0.329 0.722-0.722 0.722zM25.838 22.973h-11.86v-2.702c1.356-0.016 5.512-0.314 5.512-1.671-0.002-2.037 0.004-2.863-0.006-2.933l2.262-1.355c0.082-0.049 0.128-0.139 0.122-0.234s-0.066-0.177-0.154-0.214l-7.736-3.247v-2.104h11.86v14.461zM13.726 16.927c-1.397 0-4.088 0.18-5.257 0.944 0.007-2.335-0.081-2.183 0.206-2.38 0.726-0.535 2.803-0.908 5.050-0.908 0.98 0 5.26 0.269 5.26 1.176v2.113c-1.18-0.77-3.857-0.944-5.26-0.944zM13.978 6.306c0-0.399 0.325-0.724 0.724-0.724h10.413c0.4 0 0.723 0.329 0.723 0.724v1.702h-11.86v-1.702zM13.726 11.057l7.334 3.078-1.817 1.087c-0.966-0.958-4.162-1.144-5.517-1.144-1.356 0-4.552 0.186-5.517 1.144l-1.818-1.088 7.334-3.078zM8.469 18.6c0-0.408 1.805-1.169 5.257-1.169 3.453 0 5.26 0.761 5.26 1.169s-1.807 1.169-5.26 1.169c-3.451 0-5.257-0.761-5.257-1.169z"></path>
<path fill="#ff6b09" style="fill: var(--color1, #ff6b09)" d="M19.909 23.857c-0.459 0-0.833 0.374-0.833 0.833s0.374 0.834 0.833 0.834c0.46 0 0.833-0.374 0.833-0.834s-0.374-0.833-0.833-0.833zM19.909 25.020c-0.182 0-0.329-0.148-0.329-0.33s0.148-0.329 0.329-0.329c0.182 0 0.329 0.148 0.329 0.329s-0.148 0.33-0.329 0.33z"></path>
<path fill="#ff6b09" style="fill: var(--color1, #ff6b09)" d="M20.87 6.543h-1.922v0.504h1.922v-0.504z"></path>
<path fill="none" stroke="#ff6b09" style="stroke: var(--color1, #ff6b09)" stroke-linejoin="miter" stroke-linecap="butt" stroke-miterlimit="4" stroke-width="1.0323" d="M31.484 4.767v-4.25h-30.968v30.968h30.968v-4.25"></path>
</symbol>
<symbol id="icon-Group1" viewBox="0 0 32 32">
<path fill="#ff6b09" style="fill: var(--color1, #ff6b09)" d="M7.16 26.167c2.22 0 15.063 0 17.28 0 0.086-1.971-0.056-5.24-1.267-6.796l-0.044-0.056-2.648-1.329c0.058-0.194 0.086-0.372 0.097-0.502 0.013-0.157-0.009-0.304-0.064-0.437-0.437-1.045-1.361-1.595-1.869-1.83 0.155-0.312 0.255-0.647 0.303-0.99 0.288-0.081 0.519-0.309 0.595-0.613l0.309-1.255c0.055-0.221 0.020-0.451-0.097-0.647-0.051-0.084-0.116-0.155-0.19-0.216 0.871-1.979-0.588-3.845-0.668-3.944-1.581-1.709-3.577-1.389-3.683-1.37-2.881 0.603-3.993 2.812-3.366 5.402-0.186 0.206-0.264 0.493-0.195 0.774l0.311 1.257c0.075 0.302 0.305 0.529 0.591 0.611 0.088 0.627 0.354 1.194 0.743 1.651v0.995c-4.135 2.117-1.515 0.767-4.828 2.443-0.007 0.031-1.555 1.677-1.325 6.554l0.014 0.298zM23.84 25.541h-2.844v-1.195l1.881-4.306c0.942 1.564 0.977 4.55 0.963 5.501zM19.958 17.43c-0.11 1.261-0.801 0.88-1.228 1.851-0.336-0.369-0.437-0.812-0.346-1.286 0.163-0.87-0.368-1.128-0.237-2.043l0.020-0.021v-0.003c0.011-0.013 0.116-0.137 0.146-0.177 1.125 0.491 1.667 1.403 1.645 1.678zM13.922 16.439c0.522 0.362 1.153 0.576 1.831 0.576 0.639 0 1.245-0.186 1.765-0.528 0.072 0.719 0.353 0.863 0.253 1.391-0.019 0.098-0.029 0.195-0.035 0.29l-1.937 2.183-2.476-2.791 0.598-0.312v-0.809zM13.143 13.767v-1.21c0-0.446 0-2.214 0-2.127 0.301-0.558 0.712-0.962 1.223-1.204 1.368 0.774 2.942 1.929 3.998 3.091-0.001 1.48 0.004 1.484-0.006 1.606l-0.001 0.008c-0.082 1.344-1.188 2.458-2.605 2.458-1.378 0-2.522-1.082-2.605-2.472-0.004-0.050-0.005-0.1-0.005-0.151zM12.758 17.862l3.043 3.43 2.043-2.302c0.047 0.134 0.112 0.261 0.187 0.384l-2.23 2.788-3.325-4.159 0.282-0.142zM18.987 13.264v-0.966c0.027-0.031 0.26-0.298 0.232-0.266 0.013 0.489 0.066-0.088-0.232 1.233zM15.33 6.796c0.124 0.008 1.784-0.253 3.096 1.164 0.052 0.065 1.12 1.441 0.691 2.947-0.147-0.67-0.403-1.528-0.807-1.938l-0.442 0.441c0.399 0.405 0.662 1.637 0.762 2.276-1.833-1.918-4.196-3.131-4.229-3.152-0.119 0.074-1.119 0.264-1.845 1.676l-0.035 0.068v1.037c-0.031 0-0.123 0.001-0.092 0.001-0.462-2.229 0.422-3.999 2.902-4.519zM12.363 11.958l0.157 0.637v0.669l-0.261-1.058c-0.038-0.158 0.078-0.217 0.104-0.249zM11.905 18.29l3.895 4.872 2.635-3.296c0.287 0.257 0.425 0.293 1.032 0.606l-0.205-0.695c-0.052-0.177 0.154-0.46 0.278-0.59 0.278-0.151 0.509-0.365 0.682-0.631l2.15 1.080-2.001 4.581v1.326h-9.146v-1.326l-2.002-4.58 2.68-1.345zM8.723 20.042l1.881 4.305v1.195h-2.844c-0.014-0.95 0.021-3.935 0.963-5.499z"></path>
<path fill="none" stroke="#ff6b09" style="stroke: var(--color1, #ff6b09)" stroke-linejoin="miter" stroke-linecap="butt" stroke-miterlimit="4" stroke-width="1.0323" d="M31.484 4.767v-4.25h-30.968v30.968h30.968v-4.25"></path>
</symbol>
</defs>
</svg>
