<svg aria-hidden="true" style="position:absolute;width:0;height:0;overflow:hidden" xmlns="http://www.w3.org/2000/svg">
  <defs>
    <symbol id="icon-hellen" viewBox="0 0 128 32">
      <path fill="#111518" style="fill:var(--color1, #111518)" d="M18.123 9.163V28.55h-5.388v-7.561H5.388v7.561H0V9.163h5.388v7.284h7.347V9.163h5.388zM37.841 21.073c0 .037-.027.471-.082 1.302H27.038c.218.776.635 1.376 1.252 1.8.635.406 1.424.609 2.367.609.708 0 1.315-.102 1.823-.305.526-.203 1.052-.536 1.578-.997l2.721 2.88c-1.433 1.625-3.528 2.437-6.286 2.437-1.723 0-3.238-.332-4.544-.997s-2.322-1.588-3.048-2.77c-.708-1.182-1.061-2.52-1.061-4.016 0-1.477.345-2.797 1.034-3.96.707-1.182 1.678-2.105 2.912-2.77s2.621-.997 4.163-.997c1.469 0 2.803.314 4 .942a6.782 6.782 0 0 1 2.83 2.687c.708 1.163 1.061 2.548 1.061 4.154zm-7.864-4.044c-.798 0-1.469.231-2.014.692-.526.462-.862 1.089-1.007 1.883h6.041c-.145-.794-.49-1.422-1.034-1.883-.526-.462-1.188-.692-1.986-.692zM41.313 8h5.17v20.551h-5.17V8zM50.932 8h5.17v20.551h-5.17V8z"/>
      <path fill="#ff6b09" style="fill:var(--color2, #ff6b09)" d="M83.274 16.593c-.271-.635-.645-1.261-1.192-1.983-1.379-1.813-1.8-5.857-1.805-5.896a.484.484 0 0 0-.323-.412.461.461 0 0 0-.496.141c-1.646 1.925-.954 4.897-.58 6.085.103.325.215.708.294 1.096.608 3.137-.566 4.558-.841 4.844-.267.078-.449.039-.617-.15-.58-.664-.772-2.841-.5-5.678a6.095 6.095 0 0 0-.037-1.581c-.572-3.486-2.669-5.722-3.202-6.507-1.468-2.269-1.618-6.046-1.622-6.08a.478.478 0 0 0-.257-.417.448.448 0 0 0-.472.034c-2.45 1.741-2.239 5.935-1.898 8.276.08.543.234 1.096.5 1.794.949 2.497-.187 5.721-.196 5.75s-.019.053-.023.082c-.145.795-.388 1.27-.659 1.27a.302.302 0 0 1-.089-.015c-.332-.073-.505-.441-.51-.761-.019-4.136-3.988-5.527-4.03-5.542a.454.454 0 0 0-.496.145.492.492 0 0 0-.065.533c.047.102.196.548.094 2.124a18.882 18.882 0 0 1-.734 4.16c-.944 3.219-.795 6.269-.785 6.415.726 8.257 12.083 9.704 18.822 5.052.739-.509 1.342-1.091 1.786-1.731 2.487-3.588 1.024-8.46-.065-11.05zm-17.275 7.888a.476.476 0 0 1-.439.509h-.028a.475.475 0 0 1-.468-.456 18.19 18.19 0 0 1 .019-2.255.48.48 0 0 1 .5-.451.482.482 0 0 1 .435.519 16.283 16.283 0 0 0-.019 2.133zm.229-4.296a.472.472 0 0 1-.463.427c-.019 0-.037 0-.061-.005a.486.486 0 0 1-.407-.538l.224-1.872a.477.477 0 0 1 .524-.422c.257.034.44.276.407.543l-.224 1.867zM80.112 6.633a.483.483 0 0 1-.391-.553c.029-.197.198-1.205.656-1.713.176-.196.472-.206.661-.022s.198.49.021.685c-.194.215-.359.829-.415 1.197a.471.471 0 0 1-.534.405zM63.068 9.048c-.09-.361-.312-.955-.525-1.149-.194-.177-.214-.483-.043-.684s.465-.222.66-.045c.504.458.767 1.445.815 1.638a.487.487 0 0 1-.336.59.466.466 0 0 1-.569-.349z"/>
      <path fill="#111518" style="fill:var(--color1, #111518)" d="M106.17 23.003V27.2H91.133V8h14.689v4.197h-9.445v3.237h8.321v4.059h-8.321v3.511h9.793zM128 8v19.2h-4.361l-8.268-10.231V27.2h-5.191V8h4.361l8.268 10.231V8H128z"/>
    </symbol>
    <symbol id="icon-campfire" viewBox="0 0 24 32">
      <path fill="#ff6b09" style="fill:var(--color2, #ff6b09)" d="M22.474 16.593c-.271-.635-.645-1.261-1.192-1.983-1.379-1.813-1.8-5.857-1.805-5.896a.484.484 0 0 0-.323-.412.461.461 0 0 0-.496.141c-1.646 1.925-.954 4.897-.58 6.085.103.325.215.708.294 1.096.608 3.137-.566 4.558-.841 4.844-.267.078-.449.039-.617-.15-.58-.664-.772-2.841-.5-5.678a6.095 6.095 0 0 0-.037-1.581c-.572-3.486-2.669-5.722-3.202-6.507-1.468-2.269-1.618-6.046-1.622-6.08a.478.478 0 0 0-.257-.417.448.448 0 0 0-.472.034C8.374 1.83 8.585 6.024 8.926 8.365c.079.543.234 1.096.5 1.794.949 2.497-.187 5.721-.196 5.75s-.019.053-.023.082c-.145.795-.388 1.27-.659 1.27a.302.302 0 0 1-.089-.015c-.332-.073-.505-.441-.51-.761-.019-4.136-3.988-5.527-4.03-5.542a.454.454 0 0 0-.496.145.492.492 0 0 0-.065.533c.047.102.196.548.094 2.124a18.882 18.882 0 0 1-.734 4.16c-.944 3.219-.795 6.269-.785 6.415.726 8.257 12.082 9.704 18.822 5.052.739-.509 1.342-1.091 1.786-1.731 2.487-3.588 1.024-8.46-.065-11.05zM5.199 24.481a.476.476 0 0 1-.439.509h-.028a.475.475 0 0 1-.468-.456 18.19 18.19 0 0 1 .019-2.255.48.48 0 0 1 .5-.451.482.482 0 0 1 .435.519 16.46 16.46 0 0 0-.019 2.133zm.229-4.296a.472.472 0 0 1-.463.427c-.019 0-.037 0-.061-.005a.486.486 0 0 1-.407-.538l.224-1.872a.477.477 0 0 1 .524-.422.483.483 0 0 1 .407.543l-.224 1.867zM19.312 6.633a.483.483 0 0 1-.391-.553c.029-.197.198-1.205.656-1.713.176-.196.472-.206.661-.022s.198.49.021.685c-.194.215-.359.829-.415 1.197a.471.471 0 0 1-.534.405zM2.267 9.048c-.09-.361-.312-.955-.525-1.149-.194-.177-.214-.483-.043-.684s.465-.222.66-.045c.504.458.767 1.445.815 1.638a.487.487 0 0 1-.336.59.466.466 0 0 1-.569-.349z"/>
    </symbol>
    <symbol id="icon-phone" viewBox="0 0 32 32">
      <path fill="#ff6b09" style="fill:var(--color2, #ff6b09)" d="M4.657.003a1.969 1.969 0 0 0-1.392.678L.67 3.65c.004-.009-.01-.008-.084.101a.656.656 0 0 0-.09.184C-.56 7.437.148 11.289 1.872 14.953S6.347 22.123 9.505 25s6.721 5.128 10.119 6.244c3.397 1.116 6.692 1.102 9.133-.742a.678.678 0 0 0 .075-.068c.064-.067.066-.075.056-.065l.01-.013L31.48 27.4c.742-.849.682-2.184-.134-2.956l-6.126-5.8a1.965 1.965 0 0 0-2.84.138l-2.772 3.173c-2.25-.678-4.173-1.828-6.023-3.58s-3.132-3.637-3.993-5.905l2.771-3.173c.742-.849.683-2.184-.133-2.956L6.104.542A1.962 1.962 0 0 0 4.656.003h-.001zm.058 1.301c.19-.009.383.06.541.209l6.126 5.799a.788.788 0 0 1 .05 1.104L8.369 11.92a.675.675 0 0 0-.124.666c.93 2.641 2.429 4.807 4.493 6.761s4.275 3.304 6.889 4.018a.61.61 0 0 0 .626-.193l3.064-3.505a.716.716 0 0 1 1.06-.051l6.127 5.8a.786.786 0 0 1 .049 1.103l-2.561 2.93c-2.003 1.497-4.826 1.581-7.986.542-3.173-1.043-6.617-3.202-9.666-5.98s-5.702-6.169-7.332-9.634C1.394 10.948.809 7.482 1.696 4.427l2.502-2.862a.736.736 0 0 1 .52-.261z"/>
    </symbol>
  </defs>
</svg>